<svg width="70" height="60" viewBox="0 0 70 60" fill="none" xmlns="http://www.w3.org/2000/svg">
<mask id="mask0_297_3692" style="mask-type:luminance" maskUnits="userSpaceOnUse" x="12" y="39" width="14" height="5">
<path d="M12.0342 39.832H25.7037V43.7948H12.0342V39.832Z" fill="white"/>
</mask>
<g mask="url(#mask0_297_3692)">
<path d="M25.6793 41.8598C25.6793 42.9318 24.8195 43.7999 23.7433 43.7999H14.0512C12.9792 43.7999 12.1152 42.9318 12.1152 41.8598C12.1152 40.7919 12.9792 39.9238 14.0512 39.9238H23.7433C24.8154 39.9238 25.6793 40.7919 25.6793 41.8598Z" fill="#DC1A7D"/>
</g>
<path d="M30.5315 36.2018C30.5315 37.2697 29.6639 38.1377 28.5915 38.1377H9.20765C8.13561 38.1377 7.26758 37.2697 7.26758 36.2018C7.26758 35.1298 8.13561 34.2617 9.20765 34.2617H28.5915C29.6639 34.2617 30.5315 35.1298 30.5315 36.2018Z" fill="#F87759"/>
<path d="M28.1035 30.5631C28.1035 31.6352 27.2359 32.5032 26.1675 32.5032H11.6295C10.5575 32.5032 9.68945 31.6352 9.68945 30.5631C9.68945 29.4911 10.5575 28.623 11.6295 28.623H26.1675C27.2359 28.623 28.1035 29.4911 28.1035 30.5631Z" fill="#DC1A7D"/>
<path d="M32.9535 24.9028C32.9535 25.9748 32.086 26.8428 31.0139 26.8428H6.78382C5.71544 26.8428 4.84375 25.9748 4.84375 24.9028C4.84375 23.8344 5.71544 22.9668 6.78382 22.9668H31.0139C32.086 22.9668 32.9535 23.8344 32.9535 24.9028Z" fill="#F87759"/>
<mask id="mask1_297_3692" style="mask-type:luminance" maskUnits="userSpaceOnUse" x="0" y="17" width="38" height="5">
<path d="M0 17.2871H37.8005V21.2594H0V17.2871Z" fill="white"/>
</mask>
<g mask="url(#mask1_297_3692)">
<path d="M37.8009 19.2543C37.8009 20.3264 36.9329 21.1944 35.8609 21.1944H1.94274C0.866601 21.1944 -0.000976562 20.3264 -0.000976562 19.2543C-0.000976562 18.1859 0.866601 17.3184 1.94274 17.3184H35.8609C36.9329 17.3184 37.8009 18.1859 37.8009 19.2543Z" fill="#DC1A7D"/>
</g>
<path d="M30.5315 13.6022C30.5315 14.6701 29.6639 15.5381 28.5915 15.5381H9.20765C8.13561 15.5381 7.26758 14.6701 7.26758 13.6022C7.26758 12.5301 8.13561 11.6621 9.20765 11.6621H28.5915C29.6639 11.6621 30.5315 12.5301 30.5315 13.6022Z" fill="#F87759"/>
<mask id="mask2_297_3692" style="mask-type:luminance" maskUnits="userSpaceOnUse" x="14" y="5" width="10" height="5">
<path d="M14.4863 5.99805H23.3656V9.92656H14.4863V5.99805Z" fill="white"/>
</mask>
<g mask="url(#mask2_297_3692)">
<path d="M23.259 7.93812C23.259 9.01015 22.3909 9.87773 21.323 9.87773H16.4767C15.4047 9.87773 14.5371 9.01015 14.5371 7.93812C14.5371 6.86608 15.4047 5.99805 16.4767 5.99805H21.323C22.3909 5.99805 23.259 6.86608 23.259 7.93812Z" fill="#DC1A7D"/>
</g>
<mask id="mask3_297_3692" style="mask-type:luminance" maskUnits="userSpaceOnUse" x="18" y="0" width="43" height="49">
<path d="M18.373 0H60.3239V48.117H18.373V0Z" fill="white"/>
</mask>
<g mask="url(#mask3_297_3692)">
<path d="M60.3135 24.1001C60.3135 26.9853 58.8508 29.6145 56.3991 31.1356L31.0076 46.8647C29.6603 47.7008 28.1625 48.1202 26.6615 48.1202C25.2855 48.1202 23.9026 47.7679 22.6321 47.0569C19.976 45.5778 18.3887 42.8751 18.3887 39.8297V8.37096C18.3887 5.32873 19.976 2.62605 22.6321 1.14328C25.2919 -0.336305 28.4185 -0.265567 31.0076 1.33541L56.3991 17.0618C58.8508 18.5861 60.3135 21.2148 60.3135 24.1001Z" fill="url(#paint0_linear_297_3692)"/>
</g>
<mask id="mask4_297_3692" style="mask-type:luminance" maskUnits="userSpaceOnUse" x="17" y="11" width="35" height="23">
<path d="M17 11H51.9961V33.2093H17V11Z" fill="white"/>
</mask>
<g mask="url(#mask4_297_3692)">
<path d="M51.7852 32.7209C49.2984 32.5676 47.3282 31.3061 45.5688 29.7024C44.5643 28.7865 43.5731 27.855 42.58 26.9263V22.8526H41.0753V25.5252C39.7705 24.2975 38.468 23.0662 37.1546 21.8463C36.6991 21.4223 36.1674 21.0809 35.5641 20.62C38.3836 18.0853 40.9005 15.7746 43.4731 13.5297C44.9135 12.2728 46.5761 11.4399 48.5517 11.3947C48.6832 11.392 48.8123 11.2556 48.9429 11.1807C48.9301 11.125 48.9164 11.0694 48.9036 11.0137C46.1411 11.0137 43.3782 11.0137 40.4802 11.0137C41.6622 12.0259 41.6714 12.1793 40.6664 13.3079C40.2716 13.7524 39.8563 14.18 39.4273 14.5912C36.2902 17.5969 33.1658 20.6136 30.0022 23.5901C27.5761 25.8734 25.1349 28.1411 22.6353 30.3418C21.1411 31.658 19.3996 32.5539 17.3495 32.6967C17.229 32.7058 17.1154 32.8158 16.999 32.8779C17.3011 33.1157 17.5964 33.1892 17.8922 33.1928C19.0226 33.207 20.1549 33.2334 21.284 33.18C21.6979 33.1599 22.1849 33.0308 22.4961 32.778C24.0656 31.5047 25.626 30.214 27.1192 28.8522C29.272 26.8907 31.3622 24.8621 33.6085 22.7399C33.8253 23.0206 33.9982 23.3044 34.2264 23.5344C36.6548 25.9857 39.0668 28.456 41.5381 30.8644C42.742 32.0377 44.1185 33.0285 45.8865 33.1043C47.7873 33.1864 49.6918 33.1677 51.5953 33.1764C51.7281 33.1764 51.8623 33.0335 52.0408 32.9308C51.9116 32.8209 51.8509 32.7246 51.7852 32.7209Z" fill="white"/>
</g>
<mask id="mask5_297_3692" style="mask-type:luminance" maskUnits="userSpaceOnUse" x="23" y="11" width="12" height="15">
<path d="M23.9756 11H34.3737V25.1026H23.9756V11Z" fill="white"/>
</mask>
<g mask="url(#mask5_297_3692)">
<path d="M25.2472 11.4185C27.028 11.4783 27.4314 11.8895 27.4328 13.6748C27.4356 17.0945 27.4314 20.515 27.4342 23.9342C27.4342 24.2304 27.4607 24.5266 27.4835 25.0154C28.7554 23.8064 29.8311 22.7413 30.9574 21.7336C31.4394 21.3023 31.652 20.8655 31.6393 20.2024C31.595 18.0031 31.6192 15.8011 31.6242 13.6004C31.6279 11.9337 31.9747 11.5627 33.6149 11.4135C33.8427 11.3934 34.0667 11.3199 34.2917 11.272C34.2808 11.1857 34.2694 11.0999 34.258 11.0137C30.9218 11.0137 27.5875 11.0137 24.0059 11.0137C24.3148 11.2679 24.3769 11.3619 24.449 11.3706C24.7119 11.4021 24.9802 11.4098 25.2472 11.4185Z" fill="white"/>
</g>
<path d="M36.084 30.013C36.084 30.0928 36.0799 30.1718 36.0721 30.2512C36.0644 30.3301 36.053 30.4086 36.0375 30.4867C36.0219 30.5647 36.0023 30.6419 35.9795 30.7176C35.9562 30.7938 35.9297 30.8687 35.8992 30.9422C35.8686 31.0156 35.8348 31.0873 35.7974 31.1571C35.76 31.2274 35.7189 31.2954 35.6746 31.3616C35.6308 31.4277 35.5834 31.4916 35.5332 31.5528C35.4825 31.6144 35.4291 31.6733 35.373 31.7294C35.3168 31.7855 35.258 31.8389 35.1963 31.8896C35.1352 31.9398 35.0713 31.9873 35.0051 32.0315C34.9389 32.0753 34.8709 32.1164 34.8007 32.1538C34.7308 32.1913 34.6592 32.225 34.5857 32.2556C34.5122 32.2862 34.4374 32.3127 34.3612 32.3359C34.285 32.3588 34.2083 32.3784 34.1302 32.3939C34.0522 32.4094 33.9737 32.4208 33.8947 32.4286C33.8153 32.4363 33.7359 32.4404 33.6565 32.4404C33.5771 32.4404 33.4977 32.4363 33.4187 32.4286C33.3398 32.4208 33.2613 32.4094 33.1833 32.3939C33.1052 32.3784 33.0281 32.3588 32.9519 32.3359C32.8761 32.3127 32.8013 32.2862 32.7278 32.2556C32.6543 32.225 32.5827 32.1913 32.5124 32.1538C32.4425 32.1164 32.3741 32.0753 32.3084 32.0315C32.2422 31.9873 32.1783 31.9398 32.1167 31.8896C32.0555 31.8389 31.9967 31.7855 31.9405 31.7294C31.8839 31.6733 31.831 31.6144 31.7803 31.5528C31.7301 31.4916 31.6827 31.4277 31.6384 31.3616C31.5941 31.2954 31.5535 31.2274 31.5161 31.1571C31.4787 31.0873 31.4444 31.0156 31.4143 30.9422C31.3837 30.8687 31.3568 30.7938 31.334 30.7176C31.3107 30.6419 31.2916 30.5647 31.276 30.4867C31.2605 30.4086 31.2491 30.3301 31.2409 30.2512C31.2331 30.1718 31.2295 30.0928 31.2295 30.013C31.2295 29.9336 31.2331 29.8541 31.2409 29.7752C31.2491 29.6962 31.2605 29.6177 31.276 29.5397C31.2916 29.4617 31.3107 29.3845 31.334 29.3088C31.3568 29.2326 31.3837 29.1577 31.4143 29.0842C31.4444 29.0108 31.4787 28.9391 31.5161 28.8688C31.5535 28.799 31.5941 28.7305 31.6384 28.6648C31.6827 28.5986 31.7301 28.5348 31.7803 28.4731C31.831 28.412 31.8839 28.3531 31.9405 28.297C31.9967 28.2404 32.0555 28.1874 32.1167 28.1368C32.1783 28.0866 32.2422 28.0391 32.3084 27.9949C32.3741 27.9506 32.4425 27.91 32.5124 27.8725C32.5827 27.8351 32.6543 27.8009 32.7278 27.7708C32.8013 27.7402 32.8761 27.7133 32.9519 27.6904C33.0281 27.6672 33.1052 27.648 33.1833 27.6325C33.2613 27.617 33.3398 27.6056 33.4187 27.5978C33.4977 27.5896 33.5771 27.5859 33.6565 27.5859C33.7359 27.5859 33.8153 27.5896 33.8947 27.5978C33.9737 27.6056 34.0522 27.617 34.1302 27.6325C34.2083 27.648 34.285 27.6672 34.3612 27.6904C34.4374 27.7133 34.5122 27.7402 34.5857 27.7708C34.6592 27.8009 34.7308 27.8351 34.8007 27.8725C34.8709 27.91 34.9389 27.9506 35.0051 27.9949C35.0713 28.0391 35.1352 28.0866 35.1963 28.1368C35.258 28.1874 35.3168 28.2404 35.373 28.297C35.4291 28.3531 35.4825 28.412 35.5332 28.4731C35.5834 28.5348 35.6308 28.5986 35.6746 28.6648C35.7189 28.7305 35.76 28.799 35.7974 28.8688C35.8348 28.9391 35.8686 29.0108 35.8992 29.0842C35.9297 29.1577 35.9562 29.2326 35.9795 29.3088C36.0023 29.3845 36.0219 29.4617 36.0375 29.5397C36.053 29.6177 36.0644 29.6962 36.0721 29.7752C36.0799 29.8541 36.084 29.9336 36.084 30.013Z" fill="white"/>
<path d="M22.0084 54.4828C22.4269 54.6426 22.7825 54.8096 23.0745 54.9848C23.3675 55.1601 23.6039 55.3481 23.7828 55.5489C23.9627 55.7497 24.095 55.9679 24.179 56.2025C24.263 56.4361 24.3049 56.6949 24.3049 56.9783C24.3049 57.3544 24.231 57.6912 24.0841 57.9878C23.938 58.2849 23.7326 58.5382 23.4689 58.7472C23.206 58.9567 22.8906 59.1174 22.5232 59.2292C22.1554 59.3424 21.7538 59.3989 21.3184 59.3989C20.8424 59.3989 20.3892 59.3341 19.9584 59.2054C19.5276 59.0754 19.1661 58.9184 18.874 58.7345L18.9489 56.9783H19.7138L19.9639 58.4333C20.1647 58.5501 20.3673 58.6359 20.5718 58.6906C20.7771 58.7454 21.014 58.7728 21.2819 58.7728C21.8756 58.7728 22.3503 58.6391 22.7058 58.3712C23.0608 58.1037 23.2388 57.7231 23.2388 57.2302C23.2388 57.0381 23.2069 56.8688 23.1439 56.7227C23.0818 56.5758 22.9874 56.4434 22.861 56.3266C22.7355 56.2098 22.5748 56.1016 22.379 56.0017C22.1828 55.9008 21.9509 55.7999 21.6835 55.6986L21.1943 55.5106C20.8679 55.3855 20.5727 55.2436 20.3089 55.0853C20.046 54.926 19.8183 54.7439 19.6261 54.5394C19.4335 54.335 19.2852 54.1077 19.1807 53.8567C19.0757 53.6048 19.0237 53.32 19.0237 53.0023C19.0237 52.6436 19.0949 52.3178 19.2373 52.0257C19.3797 51.7327 19.5759 51.4817 19.8269 51.2736C20.0775 51.0645 20.3764 50.9057 20.7233 50.7971C21.0701 50.6876 21.4444 50.6328 21.846 50.6328C22.2718 50.6328 22.6565 50.694 22.9997 50.8154C23.3429 50.9358 23.6482 51.0965 23.9161 51.2973L23.8394 52.9403H23.0618L22.7989 51.5109C22.4812 51.3516 22.1426 51.2717 21.7839 51.2717C21.2983 51.2717 20.8921 51.3936 20.5663 51.6368C20.24 51.8792 20.077 52.2425 20.077 52.7267C20.077 53.1283 20.2003 53.4468 20.4476 53.6814C20.6945 53.9151 21.0473 54.1196 21.5064 54.2948L22.0084 54.4828Z" fill="white"/>
<path d="M28.2408 53.612C27.6895 53.612 27.2668 53.8361 26.9739 54.2838C26.6818 54.7306 26.5357 55.3805 26.5357 56.2335C26.5357 57.0782 26.6818 57.7203 26.9739 58.1594C27.2668 58.5975 27.6895 58.8166 28.2408 58.8166C28.7848 58.8166 29.2028 58.5975 29.4949 58.1594C29.7879 57.7203 29.9348 57.0782 29.9348 56.2335C29.9348 55.3805 29.7879 54.7306 29.4949 54.2838C29.2028 53.8361 28.7848 53.612 28.2408 53.612ZM28.2408 53.0352C28.6008 53.0352 28.9545 53.1045 29.3014 53.2433C29.6482 53.3811 29.9554 53.5855 30.2233 53.8566C30.4907 54.1282 30.708 54.4627 30.875 54.8607C31.0416 55.2577 31.1251 55.715 31.1251 56.2335C31.1251 56.7519 31.0434 57.2078 30.8805 57.6008C30.7171 57.9928 30.4998 58.3209 30.2288 58.5847C29.9572 58.8476 29.6482 59.0461 29.3014 59.1798C28.9545 59.3136 28.6008 59.3807 28.2408 59.3807C27.8729 59.3807 27.516 59.3136 27.1692 59.1798C26.8223 59.0461 26.5147 58.8476 26.2473 58.5847C25.9794 58.3209 25.764 57.9928 25.6011 57.6008C25.4377 57.2078 25.3564 56.7519 25.3564 56.2335C25.3564 55.715 25.4377 55.2577 25.6011 54.8607C25.764 54.4627 25.9812 54.1282 26.2528 53.8566C26.5252 53.5855 26.8324 53.3811 27.1747 53.2433C27.5179 53.1045 27.8729 53.0352 28.2408 53.0352Z" fill="white"/>
<path d="M35.0862 58.7518V59.2027H32.0011V58.7518L32.9905 58.5766C32.9987 58.2334 33.0051 57.897 33.0087 57.5671C33.0133 57.2362 33.016 56.9035 33.016 56.5685V51.1887L31.9883 51.0628V50.6246L33.9434 50.0605L34.1205 50.161L34.0694 51.9408V56.5685C34.0694 56.9035 34.0712 57.238 34.0748 57.5726C34.0794 57.9075 34.0863 58.2421 34.0949 58.5766L35.0862 58.7518Z" fill="white"/>
<path d="M42.2898 58.7525V59.2034L40.5483 59.3293L40.4096 58.2121C40.0664 58.6311 39.7067 58.9323 39.3307 59.1158C38.9546 59.2992 38.574 59.3914 38.1897 59.3914C37.9387 59.3914 37.7105 59.3517 37.5052 59.2728C37.3007 59.1938 37.1273 59.0642 36.9849 58.8839C36.8434 58.7041 36.7371 58.4723 36.6654 58.1884C36.5947 57.9036 36.5595 57.5522 36.5595 57.1332L36.5979 53.9733L35.707 53.7852V53.3471L37.5508 53.1719L37.6749 53.296L37.6129 55.0522V56.9963C37.6129 57.5563 37.6941 57.947 37.8575 58.1683C38.0204 58.3901 38.2737 58.5006 38.6169 58.5006C39.2011 58.5006 39.7857 58.2295 40.3712 57.6864L40.4096 53.9733L39.5187 53.7852V53.3471L41.3369 53.1719L41.4629 53.296L41.4246 55.0522V58.5645L42.2898 58.7525Z" fill="white"/>
<path d="M46.7755 58.6562C46.6158 58.8644 46.4086 59.0277 46.153 59.1455C45.8984 59.2623 45.6127 59.3207 45.295 59.3207C44.8519 59.3207 44.5028 59.2057 44.2472 58.9757C43.9925 58.7457 43.8657 58.3842 43.8657 57.8914C43.8657 57.7321 43.8675 57.5751 43.8711 57.4204C43.8757 57.2661 43.8784 57.0676 43.8784 56.8253V53.9282H42.8379V53.375L43.9533 53.2381L44.2673 51.5312H45.0322L44.9701 53.2618H46.6496V53.9282H44.9445V57.7398C44.9445 58.0661 45.0048 58.3021 45.1253 58.4481C45.2467 58.5942 45.4164 58.6672 45.6346 58.6672C45.8851 58.6672 46.1649 58.5504 46.4743 58.3167L46.7755 58.6562Z" fill="white"/>
<path d="M48.732 51.7033C48.4897 51.7033 48.2889 51.628 48.1296 51.477C47.9712 51.3264 47.8923 51.1297 47.8923 50.8873C47.8923 50.6455 47.9712 50.451 48.1296 50.305C48.2889 50.159 48.4897 50.0859 48.732 50.0859C48.9739 50.0859 49.1742 50.159 49.3326 50.305C49.4919 50.451 49.5718 50.6455 49.5718 50.8873C49.5718 51.1297 49.4919 51.3264 49.3326 51.477C49.1742 51.628 48.9739 51.7033 48.732 51.7033ZM50.1614 58.7517V59.2026H47.2515V58.7517L48.1935 58.5764C48.2017 58.2579 48.2081 57.9128 48.2117 57.5414C48.2154 57.1689 48.2172 56.8449 48.2172 56.5684V55.9422C48.2172 55.599 48.2127 55.3124 48.2044 55.0824C48.1971 54.8524 48.1889 54.6123 48.1807 54.3613L47.1895 54.2481V53.81L49.1209 53.0451L49.3089 53.1711L49.2724 54.8761V56.5684C49.2724 56.8449 49.2742 57.1689 49.2778 57.5414C49.2815 57.9128 49.2874 58.2579 49.2961 58.5764L50.1614 58.7517Z" fill="white"/>
<path d="M53.9956 53.612C53.4443 53.612 53.0217 53.8361 52.7287 54.2838C52.4367 54.7306 52.2906 55.3805 52.2906 56.2335C52.2906 57.0782 52.4367 57.7203 52.7287 58.1594C53.0217 58.5975 53.4443 58.8166 53.9956 58.8166C54.5397 58.8166 54.9577 58.5975 55.2498 58.1594C55.5428 57.7203 55.6897 57.0782 55.6897 56.2335C55.6897 55.3805 55.5428 54.7306 55.2498 54.2838C54.9577 53.8361 54.5397 53.612 53.9956 53.612ZM53.9956 53.0352C54.3557 53.0352 54.7094 53.1045 55.0563 53.2433C55.4031 53.3811 55.7103 53.5855 55.9782 53.8566C56.2456 54.1282 56.4628 54.4627 56.6299 54.8607C56.7964 55.2577 56.88 55.715 56.88 56.2335C56.88 56.7519 56.7983 57.2078 56.6353 57.6008C56.472 57.9928 56.2547 58.3209 55.9836 58.5847C55.7121 58.8476 55.4031 59.0461 55.0563 59.1798C54.7094 59.3136 54.3557 59.3807 53.9956 59.3807C53.6278 59.3807 53.2709 59.3136 52.9241 59.1798C52.5772 59.0461 52.2696 58.8476 52.0022 58.5847C51.7343 58.3209 51.5189 57.9928 51.3559 57.6008C51.1926 57.2078 51.1113 56.7519 51.1113 56.2335C51.1113 55.715 51.1926 55.2577 51.3559 54.8607C51.5189 54.4627 51.7361 54.1282 52.0077 53.8566C52.2801 53.5855 52.5873 53.3811 52.9295 53.2433C53.2727 53.1045 53.6278 53.0352 53.9956 53.0352Z" fill="white"/>
<path d="M64.6762 58.7417V59.1926H61.7663V58.7417L62.6955 58.5665C62.7028 58.2561 62.7083 57.9175 62.7119 57.5497C62.7165 57.1823 62.7192 56.8519 62.7192 56.5584V55.4558C62.7192 54.8876 62.6393 54.491 62.4801 54.2656C62.3217 54.0392 62.0588 53.926 61.6914 53.926C61.398 53.926 61.1155 53.989 60.8444 54.114C60.5729 54.2395 60.2785 54.4399 59.9608 54.7146V56.5584C59.9608 56.835 59.9627 57.159 59.9663 57.5314C59.9709 57.9029 59.9777 58.2479 59.9864 58.5665L60.8645 58.7417V59.1926H57.9546V58.7417L58.882 58.5665C58.8902 58.2479 58.8966 57.9047 58.9002 57.5369C58.9048 57.1695 58.9075 56.8432 58.9075 56.5584V55.9195C58.9075 55.5763 58.903 55.2924 58.8947 55.067C58.8861 54.8406 58.8774 54.6024 58.8692 54.3514L57.8779 54.2382V53.8L59.6213 53.0352L59.8093 53.1611L59.9097 54.1761C60.2201 53.8329 60.5733 53.5573 60.9704 53.3491C61.367 53.1401 61.7663 53.0352 62.1679 53.0352C62.7119 53.0352 63.1153 53.2154 63.3782 53.5755C63.6411 53.9347 63.7725 54.528 63.7725 55.3554V56.5584C63.7725 56.8519 63.7744 57.1805 63.778 57.5442C63.7826 57.907 63.7894 58.2479 63.7981 58.5665L64.6762 58.7417Z" fill="white"/>
<path d="M68.2818 55.7187C68.918 55.9523 69.3634 56.2221 69.6181 56.5274C69.8737 56.8331 70.0014 57.1823 70.0014 57.5752C70.0014 57.8089 69.9508 58.0348 69.8499 58.2525C69.75 58.4693 69.5971 58.6614 69.3917 58.8293C69.1873 58.9964 68.9322 59.1296 68.6268 59.2291C68.3224 59.33 67.9696 59.3807 67.568 59.3807C67.2075 59.3807 66.8835 59.341 66.595 59.262C66.3066 59.183 66.0036 59.0594 65.6859 58.8914L65.6494 57.5241H66.3395L66.5768 58.603C66.8698 58.7372 67.2089 58.8038 67.5936 58.8038C68.0691 58.8038 68.4242 58.7162 68.6579 58.5409C68.8924 58.3648 69.0102 58.1302 69.0102 57.8381C69.0102 57.5707 68.9116 57.3575 68.7145 57.1992C68.5182 57.0399 68.2197 56.8847 67.8181 56.7337L67.2413 56.5219C66.7812 56.3539 66.4129 56.1344 66.1368 55.8629C65.8616 55.5918 65.7243 55.255 65.7243 54.8534C65.7243 54.6115 65.7763 54.3819 65.8813 54.1652C65.9858 53.9475 66.1318 53.7553 66.3194 53.5883C66.5079 53.4203 66.7379 53.2866 67.0094 53.1867C67.2805 53.0858 67.5836 53.0352 67.9185 53.0352C68.2617 53.0352 68.5707 53.079 68.8459 53.1666C69.122 53.2542 69.3981 53.382 69.6747 53.55L69.6254 54.8278H68.9719L68.7838 53.8256C68.4831 53.6832 68.1905 53.612 67.9058 53.612C67.521 53.612 67.2303 53.6937 67.0332 53.8566C66.8369 54.02 66.7392 54.2432 66.7392 54.5266C66.7392 54.7776 66.825 54.9766 66.9966 55.1235C67.1682 55.2696 67.4713 55.422 67.9058 55.5799L68.2818 55.7187Z" fill="white"/>
<defs>
<linearGradient id="paint0_linear_297_3692" x1="60.8878" y1="39.1379" x2="16.0748" y2="36.2728" gradientUnits="userSpaceOnUse">
<stop stop-color="#DC1A7D"/>
<stop offset="1" stop-color="#F87759"/>
</linearGradient>
</defs>
</svg>
